<?xml version="1.0" standalone="no"?><!DOCTYPE svg PUBLIC "-//W3C//DTD SVG 1.1//EN" "http://www.w3.org/Graphics/SVG/1.1/DTD/svg11.dtd"><svg t="1755506821336" class="icon" viewBox="0 0 1024 1024" version="1.1" xmlns="http://www.w3.org/2000/svg" p-id="11746" xmlns:xlink="http://www.w3.org/1999/xlink" width="200" height="200"><path d="M971.946667 965.973333L808.106667 783.36c-16.213333 15.36-34.133333 29.013333-52.906667 40.96l167.253333 186.026667c11.946667 13.653333 33.28 14.506667 46.933334 2.56s14.506667-33.28 2.56-46.933334zM294.4 482.986667C145.066667 482.986667 23.893333 604.16 23.893333 753.493333S145.066667 1024 294.4 1024s270.506667-121.173333 270.506667-270.506667S443.733333 482.986667 294.4 482.986667z m-1.706667 447.146666c-19.626667 0-36.693333-16.213333-36.693333-35.84 0-19.626667 16.213333-35.84 36.693333-35.84 19.626667 0 36.693333 16.213333 36.693334 35.84-0.853333 20.48-17.066667 35.84-36.693334 35.84z m97.28-200.533333c-6.826667 11.093333-22.186667 26.453333-45.226666 46.08-11.946667 10.24-19.626667 16.213333-22.186667 22.186667-2.56 5.973333-4.266667 22.186667-4.266667 30.72h-52.053333v-11.946667c0-17.066667 2.56-29.866667 8.533333-40.106667 5.12-11.093333 16.213333-22.186667 33.28-35.84 16.213333-13.653333 26.453333-22.186667 29.866667-26.453333 5.12-6.826667 7.68-13.653333 7.68-21.333333 0-11.093333-4.266667-20.48-13.653333-28.16-8.533333-7.68-20.48-11.946667-35.84-11.946667-14.506667 0-26.453333 4.266667-36.693334 11.946667-9.386667 8.533333-17.92 26.453333-20.48 37.546666-1.706667 10.24-52.906667 15.36-52.053333-5.973333 0.853333-21.333333 11.946667-44.373333 30.72-61.44s44.373333-25.6 75.093333-25.6c32.426667 0 58.88 8.533333 77.653334 25.6 19.626667 17.066667 29.013333 36.693333 29.013333 59.733333 1.706667 11.946667-2.56 23.893333-9.386667 34.986667z" fill="#0784be" p-id="11747"></path><path d="M781.653333 753.493333l26.453334 29.866667c90.453333-81.92 147.626667-198.826667 147.626666-329.386667C955.733333 207.36 750.933333 5.973333 499.2 5.973333S42.666667 207.36 42.666667 453.973333c0 30.72 3.413333 61.44 9.386666 90.453334 21.333333-27.306667 46.933333-51.2 76.8-70.826667 0-6.826667-0.853333-13.653333-0.853333-19.626667 0-199.68 166.4-362.666667 371.2-362.666666S870.4 254.293333 870.4 453.973333c0 157.013333-103.253333 290.986667-246.613333 341.333334-5.973333 34.986667-17.066667 67.413333-32.426667 97.28 59.733333-11.946667 115.2-35.84 163.84-68.266667l-23.893333-26.453333c17.92-12.8 34.986667-28.16 50.346666-44.373334z" fill="#0784be" p-id="11748"></path><path d="M781.653333 753.493333c-26.453333 7.68-39.253333 24.746667-49.493333 44.373334l23.893333 26.453333c9.386667-6.826667 25.6 0 34.986667-7.68 8.533333-6.826667 10.24-26.453333 17.92-33.28l-27.306667-29.866667z" fill="#0784be" p-id="11749"></path></svg>