<?xml version="1.0" standalone="no"?><!DOCTYPE svg PUBLIC "-//W3C//DTD SVG 1.1//EN" "http://www.w3.org/Graphics/SVG/1.1/DTD/svg11.dtd"><svg t="1755506696617" class="icon" viewBox="0 0 1024 1024" version="1.1" xmlns="http://www.w3.org/2000/svg" p-id="9925" xmlns:xlink="http://www.w3.org/1999/xlink" width="200" height="200"><path d="M512 0C230.4 0 0 230.4 0 512s230.4 512 512 512 512-230.4 512-512-230.4-512-512-512z m81.088 145.088l-21.376 486.4c0 29.824-25.6 51.2-55.424 51.2h-12.8c-29.888 0-51.2-21.376-55.488-51.2l-21.312-486.4c0-29.888 21.312-51.2 46.912-51.2h68.288c29.824 0 55.424 21.312 51.2 51.2z m-21.376 768c-17.024 17.024-38.4 25.6-59.712 25.6-25.6 0-42.688-8.576-59.712-25.6-17.088-17.088-25.6-34.176-25.6-59.776s8.512-42.624 25.6-59.712c17.024-17.088 34.112-25.6 59.712-25.6s46.912 8.512 64 25.6 25.6 34.112 25.6 59.712c-4.288 25.6-12.8 46.976-29.888 59.776z" fill="#FF8F16" p-id="9926"></path></svg>