<?xml version="1.0" standalone="no"?><!DOCTYPE svg PUBLIC "-//W3C//DTD SVG 1.1//EN" "http://www.w3.org/Graphics/SVG/1.1/DTD/svg11.dtd"><svg t="1755506376780" class="icon" viewBox="0 0 1024 1024" version="1.1" xmlns="http://www.w3.org/2000/svg" p-id="8936" xmlns:xlink="http://www.w3.org/1999/xlink" width="200" height="200"><path d="M0 0m240.691273 0l542.617454 0q240.691273 0 240.691273 240.691273l0 542.617454q0 240.691273-240.691273 240.691273l-542.617454 0q-240.691273 0-240.691273-240.691273l0-542.617454q0-240.691273 240.691273-240.691273Z" fill="#9BDAC5" p-id="8937"></path><path d="M359.205722 438.898999l-70.903576-204.067525s236.882403-156.603147 393.925036 47.610872c157.189127 204.21402-63.139342 416.63176-258.270673 388.651216l-1.611445-79.546781s128.915594 1.75794 109.285265-124.227754-172.424607-28.420029-172.424607-28.420028z m68.559657 464.828612l200.844635-73.247497-53.324177-138.730758-204.21402 67.680687 56.547067 144.297568z" fill="#FFFFFF" p-id="8938"></path></svg>